<svg xmlns="http://www.w3.org/2000/svg" viewBox="0 0 32 32">
  <rect width="32" height="32" rx="8" fill="#101c40"/>
  <path fill="#5ee0ff" d="M16 6a10 10 0 0 0-3.2 19.5c.5.1.7-.2.7-.5l-.1-2c-3 .7-3.6-1.4-3.6-1.4-.4-1-1-1.3-1-1.3-.9-.6.1-.6.1-.6 1 .1 1.5 1 1.5 1 .9 1.5 2.5 1 3.1.7.1-.7.3-1 .6-1.2-2.4-.3-5-1.2-5-5.4 0-1.2.4-2.1 1-2.9-.1-.2-.4-1.3.1-2.7 0 0 .8-.3 2.9 1a10 10 0 0 1 5.4 0c2.1-1.3 2.9-1 2.9-1 .5 1.4.2 2.5.1 2.7.7.8 1 1.7 1 2.9 0 4.2-2.6 5-5.1 5.3.3.3.6.9.6 1.8l-.1 2.7c0 .3.2.6.7.5A10 10 0 0 0 16 6Z"/>
</svg>
